  0
SECTION
  2
HEADER
  9
$ACADVER
  1
AC1018
  9
$ACADMAINTVER
 70
     0
  9
$DWGCODEPAGE
  3
ANSI_1252
  9
$INSBASE
 10
0.0
 20
0.0
 30
0.0
  9
$EXTMIN
 10
-0.005499066196
 20
0.0
 30
0.0
  9
$EXTMAX
 10
1.949991888046698
 20
1.992405062999999
 30
10.0
  9
$LIMMIN
 10
0.0
 20
0.0
  9
$LIMMAX
 10
12.0
 20
9.0
  9
$ORTHOMODE
 70
     0
  9
$REGENMODE
 70
     1
  9
$FILLMODE
 70
     1
  9
$QTEXTMODE
 70
     0
  9
$MIRRTEXT
 70
     0
  9
$LTSCALE
 40
1.0
  9
$ATTMODE
 70
     1
  9
$TEXTSIZE
 40
0.2
  9
$TRACEWID
 40
0.05
  9
$TEXTSTYLE
  7
Standard
  9
$CLAYER
  8
0
  9
$CELTYPE
  6
Continuous
  9
$CECOLOR
 62
   256
  9
$CELTSCALE
 40
1.0
  9
$DISPSILH
 70
     0
  9
$DIMSCALE
 40
1.0
  9
$DIMASZ
 40
0.18
  9
$DIMEXO
 40
0.0625
  9
$DIMDLI
 40
0.38
  9
$DIMRND
 40
0.0
  9
$DIMDLE
 40
0.0
  9
$DIMEXE
 40
0.18
  9
$DIMTP
 40
0.0
  9
$DIMTM
 40
0.0
  9
$DIMTXT
 40
0.18
  9
$DIMCEN
 40
0.09
  9
$DIMTSZ
 40
0.0
  9
$DIMTOL
 70
     0
  9
$DIMLIM
 70
     0
  9
$DIMTIH
 70
     1
  9
$DIMTOH
 70
     1
  9
$DIMSE1
 70
     0
  9
$DIMSE2
 70
     0
  9
$DIMTAD
 70
     0
  9
$DIMZIN
 70
     0
  9
$DIMBLK
  1

  9
$DIMASO
 70
     1
  9
$DIMSHO
 70
     1
  9
$DIMPOST
  1

  9
$DIMAPOST
  1

  9
$DIMALT
 70
     0
  9
$DIMALTD
 70
     2
  9
$DIMALTF
 40
25.4
  9
$DIMLFAC
 40
1.0
  9
$DIMTOFL
 70
     0
  9
$DIMTVP
 40
0.0
  9
$DIMTIX
 70
     0
  9
$DIMSOXD
 70
     0
  9
$DIMSAH
 70
     0
  9
$DIMBLK1
  1

  9
$DIMBLK2
  1

  9
$DIMSTYLE
  2
Standard
  9
$DIMCLRD
 70
     0
  9
$DIMCLRE
 70
     0
  9
$DIMCLRT
 70
     0
  9
$DIMTFAC
 40
1.0
  9
$DIMGAP
 40
0.09
  9
$DIMJUST
 70
     0
  9
$DIMSD1
 70
     0
  9
$DIMSD2
 70
     0
  9
$DIMTOLJ
 70
     1
  9
$DIMTZIN
 70
     0
  9
$DIMALTZ
 70
     0
  9
$DIMALTTZ
 70
     0
  9
$DIMUPT
 70
     0
  9
$DIMDEC
 70
     4
  9
$DIMTDEC
 70
     4
  9
$DIMALTU
 70
     2
  9
$DIMALTTD
 70
     2
  9
$DIMTXSTY
  7
Standard
  9
$DIMAUNIT
 70
     0
  9
$DIMADEC
 70
     0
  9
$DIMALTRND
 40
0.0
  9
$DIMAZIN
 70
     0
  9
$DIMDSEP
 70
    46
  9
$DIMATFIT
 70
     3
  9
$DIMFRAC
 70
     0
  9
$DIMLDRBLK
  1

  9
$DIMLUNIT
 70
     2
  9
$DIMLWD
 70
    -2
  9
$DIMLWE
 70
    -2
  9
$DIMTMOVE
 70
     0
  9
$LUNITS
 70
     2
  9
$LUPREC
 70
     4
  9
$SKETCHINC
 40
0.1
  9
$FILLETRAD
 40
0.0
  9
$AUNITS
 70
     0
  9
$AUPREC
 70
     0
  9
$MENU
  1
.
  9
$ELEVATION
 40
0.0
  9
$PELEVATION
 40
0.0
  9
$THICKNESS
 40
0.0
  9
$LIMCHECK
 70
     0
  9
$CHAMFERA
 40
0.0
  9
$CHAMFERB
 40
0.0
  9
$CHAMFERC
 40
0.0
  9
$CHAMFERD
 40
0.0
  9
$SKPOLY
 70
     0
  9
$TDCREATE
 40
2454529.934018172
  9
$TDUCREATE
 40
2454529.892351505
  9
$TDUPDATE
 40
2454529.953243438
  9
$TDUUPDATE
 40
2454529.911576771
  9
$TDINDWG
 40
0.0192261690
  9
$TDUSRTIMER
 40
0.0192261690
  9
$USRTIMER
 70
     1
  9
$ANGBASE
 50
0.0
  9
$ANGDIR
 70
     0
  9
$PDMODE
 70
    34
  9
$PDSIZE
 40
-2.0
  9
$PLINEWID
 40
0.0
  9
$SPLFRAME
 70
     0
  9
$SPLINETYPE
 70
     6
  9
$SPLINESEGS
 70
     8
  9
$HANDSEED
  5
118
  9
$SURFTAB1
 70
     6
  9
$SURFTAB2
 70
     6
  9
$SURFTYPE
 70
     6
  9
$SURFU
 70
     6
  9
$SURFV
 70
     6
  9
$UCSBASE
  2

  9
$UCSNAME
  2

  9
$UCSORG
 10
0.0
 20
0.0
 30
0.0
  9
$UCSXDIR
 10
1.0
 20
0.0
 30
0.0
  9
$UCSYDIR
 10
0.0
 20
1.0
 30
0.0
  9
$UCSORTHOREF
  2

  9
$UCSORTHOVIEW
 70
     1
  9
$UCSORGTOP
 10
0.0
 20
0.0
 30
0.0
  9
$UCSORGBOTTOM
 10
0.0
 20
0.0
 30
0.0
  9
$UCSORGLEFT
 10
0.0
 20
0.0
 30
0.0
  9
$UCSORGRIGHT
 10
0.0
 20
0.0
 30
0.0
  9
$UCSORGFRONT
 10
0.0
 20
0.0
 30
0.0
  9
$UCSORGBACK
 10
0.0
 20
0.0
 30
0.0
  9
$PUCSBASE
  2

  9
$PUCSNAME
  2

  9
$PUCSORG
 10
0.0
 20
0.0
 30
0.0
  9
$PUCSXDIR
 10
1.0
 20
0.0
 30
0.0
  9
$PUCSYDIR
 10
0.0
 20
1.0
 30
0.0
  9
$PUCSORTHOREF
  2

  9
$PUCSORTHOVIEW
 70
     0
  9
$PUCSORGTOP
 10
0.0
 20
0.0
 30
0.0
  9
$PUCSORGBOTTOM
 10
0.0
 20
0.0
 30
0.0
  9
$PUCSORGLEFT
 10
0.0
 20
0.0
 30
0.0
  9
$PUCSORGRIGHT
 10
0.0
 20
0.0
 30
0.0
  9
$PUCSORGFRONT
 10
0.0
 20
0.0
 30
0.0
  9
$PUCSORGBACK
 10
0.0
 20
0.0
 30
0.0
  9
$USERI1
 70
     0
  9
$USERI2
 70
     0
  9
$USERI3
 70
     0
  9
$USERI4
 70
     0
  9
$USERI5
 70
     0
  9
$USERR1
 40
0.0
  9
$USERR2
 40
0.0
  9
$USERR3
 40
0.0
  9
$USERR4
 40
0.0
  9
$USERR5
 40
0.0
  9
$WORLDVIEW
 70
     1
  9
$SHADEDGE
 70
     3
  9
$SHADEDIF
 70
    70
  9
$TILEMODE
 70
     1
  9
$MAXACTVP
 70
    64
  9
$PINSBASE
 10
0.0
 20
0.0
 30
0.0
  9
$PLIMCHECK
 70
     0
  9
$PEXTMIN
 10
1.000000000000000E+20
 20
1.000000000000000E+20
 30
1.000000000000000E+20
  9
$PEXTMAX
 10
-1.000000000000000E+20
 20
-1.000000000000000E+20
 30
-1.000000000000000E+20
  9
$PLIMMIN
 10
0.0
 20
0.0
  9
$PLIMMAX
 10
12.0
 20
9.0
  9
$UNITMODE
 70
     0
  9
$VISRETAIN
 70
     1
  9
$PLINEGEN
 70
     0
  9
$PSLTSCALE
 70
     1
  9
$TREEDEPTH
 70
  3020
  9
$CMLSTYLE
  2
Standard
  9
$CMLJUST
 70
     0
  9
$CMLSCALE
 40
1.0
  9
$PROXYGRAPHICS
 70
     1
  9
$MEASUREMENT
 70
     0
  9
$CELWEIGHT
370
    -1
  9
$ENDCAPS
280
     0
  9
$JOINSTYLE
280
     0
  9
$LWDISPLAY
290
     0
  9
$INSUNITS
 70
     0
  9
$HYPERLINKBASE
  1

  9
$STYLESHEET
  1

  9
$XEDIT
290
     1
  9
$CEPSNTYPE
380
     0
  9
$PSTYLEMODE
290
     1
  9
$FINGERPRINTGUID
  2
{F22F7199-2330-47D6-AA05-8BFF01FCE84C}
  9
$VERSIONGUID
  2
{56D91034-2E78-419C-9DCB-28ADEBB200C7}
  9
$EXTNAMES
290
     1
  9
$PSVPSCALE
 40
0.0
  9
$OLESTARTUP
290
     0
  9
$SORTENTS
280
   127
  9
$INDEXCTL
280
     0
  9
$HIDETEXT
280
     0
  9
$XCLIPFRAME
290
     0
  9
$HALOGAP
280
     0
  9
$OBSCOLOR
 70
   257
  9
$OBSLTYPE
280
     0
  9
$INTERSECTIONDISPLAY
280
     0
  9
$INTERSECTIONCOLOR
 70
   257
  9
$DIMASSOC
280
     1
  9
$PROJECTNAME
  1

  0
ENDSEC
  0
SECTION
  2
CLASSES
  0
CLASS
  1
ACDBDICTIONARYWDFLT
  2
AcDbDictionaryWithDefault
  3
ObjectDBX Classes
 90
        0
 91
        1
280
     0
281
     0
  0
ENDSEC
  0
SECTION
  2
TABLES
  0
TABLE
  2
VPORT
  5
8
330
0
100
AcDbSymbolTable
 70
     5
  0
VPORT
  5
117
330
8
100
AcDbSymbolTableRecord
100
AcDbViewportTableRecord
  2
*Active
 70
     0
 10
0.0
 20
0.0
 11
1.0
 21
1.0
 12
-0.6751460409465065
 22
1.574958223642818
 13
0.0
 23
0.0
 14
1.0
 24
1.0
 15
0.0
 25
0.0
 16
0.0
 26
0.0
 36
1.0
 17
2.583494008871658
 27
0.0844088017266064
 37
0.4069736813449403
 40
0.2857989227271123
 41
1.652835408022129
 42
50.0
 43
0.0
 44
0.0
 50
0.0
 51
0.0
 71
     0
 72
   100
 73
     1
 74
     1
 75
     0
 76
     0
 77
     0
 78
     0
281
     0
 65
     1
110
0.0
120
0.0
130
0.0
111
1.0
121
0.0
131
0.0
112
0.0
122
1.0
132
0.0
 79
     1
146
0.0
  0
ENDTAB
  0
TABLE
  2
LTYPE
  5
5
330
0
100
AcDbSymbolTable
 70
    12
  0
LTYPE
  5
13
330
5
100
AcDbSymbolTableRecord
100
AcDbLinetypeTableRecord
  2
ByBlock
 70
     0
  3

 72
    65
 73
     0
 40
0.0
  0
LTYPE
  5
14
330
5
100
AcDbSymbolTableRecord
100
AcDbLinetypeTableRecord
  2
ByLayer
 70
     0
  3

 72
    65
 73
     0
 40
0.0
  0
LTYPE
  5
15
330
5
100
AcDbSymbolTableRecord
100
AcDbLinetypeTableRecord
  2
Continuous
 70
     0
  3
Solid line
 72
    65
 73
     0
 40
0.0
  0
LTYPE
  5
24
330
5
100
AcDbSymbolTableRecord
100
AcDbLinetypeTableRecord
  2
SOLIDLINE1
 70
     0
  3
Line #1
 72
    65
 73
     0
 40
0.0
  0
LTYPE
  5
25
330
5
100
AcDbSymbolTableRecord
100
AcDbLinetypeTableRecord
  2
SOLIDLINE2
 70
     0
  3
Line #2
 72
    65
 73
     0
 40
0.0
  0
LTYPE
  5
26
330
5
100
AcDbSymbolTableRecord
100
AcDbLinetypeTableRecord
  2
SOLIDLINE3
 70
     0
  3
Line #3
 72
    65
 73
     0
 40
0.0
  0
LTYPE
  5
27
330
5
100
AcDbSymbolTableRecord
100
AcDbLinetypeTableRecord
  2
SOLIDLINE4
 70
     0
  3
Line #4
 72
    65
 73
     0
 40
0.0
  0
LTYPE
  5
28
330
5
100
AcDbSymbolTableRecord
100
AcDbLinetypeTableRecord
  2
SOLIDLINE5
 70
     0
  3
Line #5
 72
    65
 73
     0
 40
0.0
  0
LTYPE
  5
29
330
5
100
AcDbSymbolTableRecord
100
AcDbLinetypeTableRecord
  2
SOLIDLINE6
 70
     0
  3
Line #6
 72
    65
 73
     0
 40
0.0
  0
LTYPE
  5
2A
330
5
100
AcDbSymbolTableRecord
100
AcDbLinetypeTableRecord
  2
SOLIDLINE7
 70
     0
  3
Line #7
 72
    65
 73
     0
 40
0.0
  0
LTYPE
  5
2B
330
5
100
AcDbSymbolTableRecord
100
AcDbLinetypeTableRecord
  2
SOLIDLINE8
 70
     0
  3
Line #8
 72
    65
 73
     0
 40
0.0
  0
LTYPE
  5
2C
330
5
100
AcDbSymbolTableRecord
100
AcDbLinetypeTableRecord
  2
SOLIDLINE9
 70
     0
  3
Line #9
 72
    65
 73
     0
 40
0.0
  0
LTYPE
  5
2D
330
5
100
AcDbSymbolTableRecord
100
AcDbLinetypeTableRecord
  2
SOLIDLINE10
 70
     0
  3
Line #10
 72
    65
 73
     0
 40
0.0
  0
LTYPE
  5
2E
330
5
100
AcDbSymbolTableRecord
100
AcDbLinetypeTableRecord
  2
SOLIDLINE11
 70
     0
  3
Line #11
 72
    65
 73
     0
 40
0.0
  0
ENDTAB
  0
TABLE
  2
LAYER
  5
2
330
0
100
AcDbSymbolTable
 70
     2
  0
LAYER
  5
10
330
2
100
AcDbSymbolTableRecord
100
AcDbLayerTableRecord
  2
0
 70
     0
 62
     7
  6
Continuous
370
    -3
390
F
  0
LAYER
  5
2F
330
2
100
AcDbSymbolTableRecord
100
AcDbLayerTableRecord
  2
LAYER1
 70
     0
 62
   213
  6
SOLIDLINE1
370
    -3
390
F
  0
ENDTAB
  0
TABLE
  2
STYLE
  5
3
330
0
100
AcDbSymbolTable
 70
     1
  0
STYLE
  5
11
330
3
100
AcDbSymbolTableRecord
100
AcDbTextStyleTableRecord
  2
Standard
 70
     0
 40
0.0
 41
1.0
 50
0.0
 71
     0
 42
0.2
  3
txt
  4

  0
ENDTAB
  0
TABLE
  2
VIEW
  5
6
330
0
100
AcDbSymbolTable
 70
     0
  0
ENDTAB
  0
TABLE
  2
UCS
  5
7
330
0
100
AcDbSymbolTable
 70
     0
  0
ENDTAB
  0
TABLE
  2
APPID
  5
9
330
0
100
AcDbSymbolTable
 70
     1
  0
APPID
  5
12
330
9
100
AcDbSymbolTableRecord
100
AcDbRegAppTableRecord
  2
ACAD
 70
     0
  0
ENDTAB
  0
TABLE
  2
DIMSTYLE
  5
A
330
0
100
AcDbSymbolTable
 70
     1
100
AcDbDimStyleTable
 71
     0
  0
DIMSTYLE
105
112
330
A
100
AcDbSymbolTableRecord
100
AcDbDimStyleTableRecord
  2
Standard
 70
     0
340
11
  0
ENDTAB
  0
TABLE
  2
BLOCK_RECORD
  5
1
330
0
100
AcDbSymbolTable
 70
     0
  0
BLOCK_RECORD
  5
20
330
1
100
AcDbSymbolTableRecord
100
AcDbBlockTableRecord
  2
*Model_Space
340
23
  0
BLOCK_RECORD
  5
1C
330
1
100
AcDbSymbolTableRecord
100
AcDbBlockTableRecord
  2
*Paper_Space
340
1F
  0
ENDTAB
  0
ENDSEC
  0
SECTION
  2
BLOCKS
  0
BLOCK
  5
21
330
20
100
AcDbEntity
  8
0
100
AcDbBlockBegin
  2
*Model_Space
 70
     0
 10
0.0
 20
0.0
 30
0.0
  3
*Model_Space
  1

  0
ENDBLK
  5
22
330
20
100
AcDbEntity
  8
0
100
AcDbBlockEnd
  0
BLOCK
  5
1D
330
1C
100
AcDbEntity
 67
     1
  8
0
100
AcDbBlockBegin
  2
*Paper_Space
 70
     0
 10
0.0
 20
0.0
 30
0.0
  3
*Paper_Space
  1

  0
ENDBLK
  5
1E
330
1C
100
AcDbEntity
 67
     1
  8
0
100
AcDbBlockEnd
  0
ENDSEC
  0
SECTION
  2
ENTITIES
  0
LWPOLYLINE
  5
32
330
20
100
AcDbEntity
  8
LAYER1
  6
SOLIDLINE1
 62
     0
100
AcDbPolyline
 90
       13
 70
     0
 43
0.0
 38
10.0
 10
0.0007981228151
 20
0.546835443
 10
0.01592255016
 20
0.5493670886
 10
0.02316950532
 20
0.6506329114
 10
0.07575781761
 20
0.7696202532
 10
0.1284099797
 20
0.8683544303999999
 10
0.2011668556
 20
0.9898734176999999
 10
0.2614171469
 20
1.078481012999999
 10
0.341740227
 20
1.199999999999999
 10
0.4597187415
 20
1.37721519
 10
0.5500822066
 20
1.513924051
 10
0.6929781155
 20
1.787341771999999
 10
0.7605791179000001
 20
1.944303796999999
 10
0.7780819512999999
 20
1.992405062999999
  0
LWPOLYLINE
  5
41
330
20
100
AcDbEntity
  8
LAYER1
  6
SOLIDLINE2
 62
     0
100
AcDbPolyline
 90
       14
 70
     0
 43
0.0
 38
9.0
 10
-0.005499066196
 20
0.1443037975
 10
0.01215541047
 20
0.1443037975
 10
0.0219723211
 20
0.2303797468
 10
0.1703034463
 20
0.3797468354
 10
0.2809392309
 20
0.4860759494
 10
0.4443947835000001
 20
0.6379746835
 10
0.6179146647
 20
0.7974683544
 10
0.8241176751999999
 20
0.9898734176999999
 10
0.9271792743
 20
1.098734177
 10
1.032699092
 20
1.227848100999999
 10
1.140669146
 20
1.379746834999999
 10
1.251089437999999
 20
1.554430379999999
 10
1.341381072
 20
1.713924051
 10
1.414082079
 20
1.853164556999999
  0
LWPOLYLINE
  5
51
330
20
100
AcDbEntity
  8
LAYER1
  6
SOLIDLINE3
 62
     0
100
AcDbPolyline
 90
       15
 70
     0
 43
0.0
 38
8.0
 10
0.0
 20
0.0
 10
0.01008827238
 20
0.0
 10
0.02233147637
 20
0.1164556962
 10
0.2111274283
 20
0.2303797468
 10
0.4376825706
 20
0.3670886076
 10
0.6264785225000001
 20
0.4810126582
 10
0.8731383785
 20
0.6405063291
 10
1.044223984999999
 20
0.7721518987
 10
1.185060736999999
 20
0.8987341772
 10
1.300700752
 20
1.017721518999999
 10
1.398662345999999
 20
1.144303797
 10
1.489033793
 20
1.278481012999999
 10
1.561774706
 20
1.405063291
 10
1.641978068
 20
1.564556961999999
 10
1.727089885
 20
1.767088608
  0
LWPOLYLINE
  5
62
330
20
100
AcDbEntity
  8
LAYER1
  6
SOLIDLINE4
 62
     0
100
AcDbPolyline
 90
       18
 70
     0
 43
0.0
 38
6.0
 10
0.0
 20
0.0
 10
0.01008827238
 20
0.0
 10
0.0223394576
 20
0.1139240506
 10
0.2566683161
 20
0.1848101266
 10
0.5715916165000001
 20
0.2911392405
 10
0.7680575287000001
 20
0.3721518987
 10
0.9317445367999999
 20
0.4506329114
 10
1.052596293999999
 20
0.5164556962
 10
1.223761711999999
 20
0.6227848101
 10
1.339505482999999
 20
0.7088607595000001
 10
1.457715453
 20
0.8126582277999998
 10
1.578367679
 20
0.9417721519
 10
1.668779031999999
 20
1.063291139
 10
1.736507734
 20
1.179746834999999
 10
1.796646287999999
 20
1.303797467999999
 10
1.861693297
 20
1.470886076
 10
1.909117755
 20
1.627848100999999
 10
1.931560968999999
 20
1.708860759
  0
LWPOLYLINE
  5
76
330
20
100
AcDbEntity
  8
LAYER1
  6
SOLIDLINE5
 62
     0
100
AcDbPolyline
 90
       21
 70
     0
 43
0.0
 38
5.0
 10
0.01008827238
 20
0.0
 10
0.0223394576
 20
0.1139240506
 10
0.2718007247
 20
0.1848101266
 10
0.4632943317000001
 20
0.2430379747
 10
0.6799527511
 20
0.3189873418
 10
0.8084106181999999
 20
0.3721518987
 10
0.9746196945000001
 20
0.4506329114
 10
1.092949382999999
 20
0.5164556962
 10
1.193640556999999
 20
0.5772151899
 10
1.296813894
 20
0.6506329114
 10
1.389890976
 20
0.7265822785
 10
1.505562915999999
 20
0.835443038
 10
1.578439509999999
 20
0.9189873418000001
 10
1.638729708
 20
0.9949367088999998
 10
1.69898798
 20
1.081012657999999
 10
1.76169649
 20
1.189873417999999
 10
1.80679841
 20
1.283544304
 10
1.851812536999999
 20
1.405063291
 10
1.886698484999999
 20
1.539240505999999
 10
1.908998036999999
 20
1.665822785
 10
1.913285035741166
 20
1.706934388777879
  0
LWPOLYLINE
  5
8D
330
20
100
AcDbEntity
  8
LAYER1
  6
SOLIDLINE6
 62
     0
100
AcDbPolyline
 90
       19
 70
     0
 43
0.0
 38
4.0
 10
0.0
 20
0.0
 10
0.01261034048
 20
0.0
 10
0.02055166249
 20
0.1189873418
 10
0.2401950612
 20
0.1898734177
 10
0.4875971715
 20
0.2658227848
 10
0.6996983096
 20
0.3443037975
 10
0.8487078392
 20
0.4101265823000001
 10
0.9699586571999999
 20
0.4708860759000001
 10
1.091233419
 20
0.5392405063
 10
1.235294587
 20
0.6354430380000001
 10
1.356657141999999
 20
0.7316455696
 10
1.488203745
 20
0.8582278481000001
 10
1.571751240999999
 20
0.9594936709
 10
1.657876674
 20
1.078481012999999
 10
1.739013839
 20
1.215189872999999
 10
1.792336425
 20
1.329113924
 10
1.833040688
 20
1.440506328999999
 10
1.868812553
 20
1.587341771999999
 10
1.891886283
 20
1.706329114
  0
LWPOLYLINE
  5
A2
330
20
100
AcDbEntity
  8
LAYER1
  6
SOLIDLINE7
 62
     0
100
AcDbPolyline
 90
       23
 70
     0
 43
0.0
 38
3.0
 10
0.0
 20
0.0
 10
0.01261034048
 20
0.0
 10
0.02055166249
 20
0.1189873418
 10
0.1367423819
 20
0.1746835443
 10
0.2503791083
 20
0.2202531646
 10
0.4170510958
 20
0.2886075949
 10
0.5837230833
 20
0.3569620253
 10
0.697367791
 20
0.4050632911000001
 10
0.7857678740000001
 20
0.4455696203000001
 10
0.8868102223999999
 20
0.4962025316
 10
1.028301434999999
 20
0.5772151899
 10
1.131905758
 20
0.6405063291
 10
1.212795505
 20
0.6987341772
 10
1.281058949
 20
0.7518987342
 10
1.346808306999999
 20
0.8075949366999999
 10
1.44548023
 20
0.9063291139
 10
1.539139943
 20
1.015189872999999
 10
1.62022124
 20
1.134177215
 10
1.658259773
 20
1.199999999999999
 10
1.714104426
 20
1.313924050999999
 10
1.7624148
 20
1.437974684
 10
1.805728926
 20
1.577215189999999
 10
1.836456654
 20
1.724050633
  0
LWPOLYLINE
  5
BB
330
20
100
AcDbEntity
  8
LAYER1
  6
SOLIDLINE8
 62
     0
100
AcDbPolyline
 90
       25
 70
     0
 43
0.0
 38
2.0
 10
0.0
 20
0.0
 10
0.01261034048
 20
0.0
 10
0.02056762495
 20
0.1240506329
 10
0.0938991492
 20
0.1848101266
 10
0.1697287979
 20
0.2379746835
 10
0.2329081999
 20
0.2784810127
 10
0.3011317382
 20
0.3189873418
 10
0.4097722157
 20
0.3797468354
 10
0.5310469775
 20
0.4481012658
 10
0.6422095232000001
 20
0.5088607595
 10
0.6826344438
 20
0.5316455696000001
 10
0.7887448720999999
 20
0.5898734177
 10
0.9226539179999999
 20
0.6658227848000001
 10
1.043960605
 20
0.7443037975
 10
1.142536753999999
 20
0.8126582277999998
 10
1.218382365
 20
0.8708860759
 10
1.289199801999999
 20
0.9341772151999998
 10
1.372691429999999
 20
1.017721518999999
 10
1.463837054999999
 20
1.129113924
 10
1.539882196999999
 20
1.250632910999999
 10
1.588096795999999
 20
1.344303796999999
 10
1.631267259
 20
1.437974684
 10
1.666855555999999
 20
1.526582278
 10
1.707583763
 20
1.64556962
 10
1.738199754
 20
1.756962024999999
  0
LWPOLYLINE
  5
D6
330
20
100
AcDbEntity
  8
LAYER1
  6
SOLIDLINE9
 62
     0
100
AcDbPolyline
 90
       23
 70
     0
 43
0.0
 38
1.0
 10
0.0
 20
0.0
 10
0.01261034048
 20
0.0
 10
0.02055964372
 20
0.1215189873
 10
0.02325729883
 20
0.1772151899
 10
0.03856529443
 20
0.2329113924
 10
0.05385732757
 20
0.2835443038
 10
0.09198365444
 20
0.3772151899
 10
0.1426963781
 20
0.4632911392000001
 10
0.2110795409
 20
0.5544303797
 10
0.2970852555
 20
0.6354430380000001
 10
0.377982984
 20
0.6962025316
 10
0.4739891775000001
 20
0.7493670886000001
 10
0.5952479768
 20
0.8126582277999998
 10
0.7240889428
 20
0.8810126581999998
 10
0.8403355308
 20
0.9544303796999999
 10
0.9464938464999999
 20
1.027848101
 10
1.072924482
 20
1.13164557
 10
1.15388606
 20
1.212658228
 10
1.237449519
 20
1.318987342
 10
1.316016728999999
 20
1.440506328999999
 10
1.397193799999999
 20
1.589873417999999
 10
1.445448305999999
 20
1.696202531999999
 10
1.498866665999999
 20
1.840506329
  0
LWPOLYLINE
  5
EF
330
20
100
AcDbEntity
  8
LAYER1
  6
SOLIDLINE10
 62
     0
100
AcDbPolyline
 90
       16
 70
     0
 43
0.0
 10
-0.001947419669
 20
0.9822784809999999
 10
0.02075119319
 20
0.9822784809999999
 10
0.02116621706
 20
1.113924050999999
 10
0.1372851054
 20
1.146835443
 10
0.2382875477
 20
1.184810126999999
 10
0.3191134452
 20
1.22278481
 10
0.4176496879
 20
1.278481012999999
 10
0.4909413060000001
 20
1.326582278
 10
0.5693169665
 20
1.387341771999999
 10
0.678093125
 20
1.491139240999999
 10
0.7414082079000001
 20
1.574683543999999
 10
0.7945951123000001
 20
1.64556962
 10
0.8655721742
 20
1.759493670999999
 10
0.9137708111
 20
1.848101266
 10
0.9416971284
 20
1.906329114
 10
0.9620412788999999
 20
1.959493670999999
  0
LWPOLYLINE
  5
101
330
20
100
AcDbEntity
  8
LAYER1
  6
SOLIDLINE11
 62
     0
100
AcDbPolyline
 90
       15
 70
     0
 43
0.0
 38
7.0
 10
0.0
 20
0.0
 10
0.01008827238
 20
0.0
 10
0.0223394576
 20
0.1139240506
 10
0.2792791355
 20
0.2126582278
 10
0.5361948697
 20
0.3189873418
 10
0.7779542516
 20
0.4329113924000001
 10
0.9743323702999999
 20
0.5417721519
 10
1.18573116
 20
0.6860759494
 10
1.293892763999999
 20
0.7772151898999999
 10
1.402022443
 20
0.8784810127
 10
1.469878845
 20
0.9544303796999999
 10
1.570354526
 20
1.083544304
 10
1.693281402
 20
1.291139240999999
 10
1.811004516999999
 20
1.549367088999999
 10
1.873505514999999
 20
1.724050633
  0
ENDSEC
  0
SECTION
  2
OBJECTS
  0
DICTIONARY
  5
C
330
0
100
AcDbDictionary
281
     1
  3
ACAD_COLOR
350
1B
  3
ACAD_GROUP
350
D
  3
ACAD_LAYOUT
350
19
  3
ACAD_MATERIAL
350
1A
  3
ACAD_MLINESTYLE
350
16
  3
ACAD_PLOTSETTINGS
350
18
  3
ACAD_PLOTSTYLENAME
350
E
  0
DICTIONARY
  5
1B
102
{ACAD_REACTORS
330
C
102
}
330
C
100
AcDbDictionary
281
     1
  0
DICTIONARY
  5
D
102
{ACAD_REACTORS
330
C
102
}
330
C
100
AcDbDictionary
281
     1
  0
DICTIONARY
  5
19
102
{ACAD_REACTORS
330
C
102
}
330
C
100
AcDbDictionary
281
     1
  3
Layout1
350
1F
  3
Model
350
23
  0
DICTIONARY
  5
1A
102
{ACAD_REACTORS
330
C
102
}
330
C
100
AcDbDictionary
281
     1
  0
DICTIONARY
  5
16
102
{ACAD_REACTORS
330
C
102
}
330
C
100
AcDbDictionary
281
     1
  3
Standard
350
17
  0
DICTIONARY
  5
18
102
{ACAD_REACTORS
330
C
102
}
330
C
100
AcDbDictionary
281
     1
  0
ACDBDICTIONARYWDFLT
  5
E
102
{ACAD_REACTORS
330
C
102
}
330
C
100
AcDbDictionary
281
     1
  3
Normal
350
F
100
AcDbDictionaryWithDefault
340
F
  0
LAYOUT
  5
1F
102
{ACAD_REACTORS
330
19
102
}
330
19
100
AcDbPlotSettings
  1

  2
HP DeskJet 840C/841C/842C/843C
  4

  6

 40
0.0
 41
0.0
 42
0.0
 43
0.0
 44
0.0
 45
0.0
 46
0.0
 47
0.0
 48
0.0
 49
0.0
140
0.0
141
0.0
142
1.0
143
1.0
 70
   688
 72
     0
 73
     0
 74
     5
  7

 75
    16
147
1.0
 76
     0
 77
     2
 78
   300
148
0.0
149
0.0
100
AcDbLayout
  1
Layout1
 70
     1
 71
     1
 10
0.0
 20
0.0
 11
12.0
 21
9.0
 12
0.0
 22
0.0
 32
0.0
 14
1.000000000000000E+20
 24
1.000000000000000E+20
 34
1.000000000000000E+20
 15
-1.000000000000000E+20
 25
-1.000000000000000E+20
 35
-1.000000000000000E+20
146
0.0
 13
0.0
 23
0.0
 33
0.0
 16
1.0
 26
0.0
 36
0.0
 17
0.0
 27
1.0
 37
0.0
 76
     0
330
1C
  0
LAYOUT
  5
23
102
{ACAD_REACTORS
330
19
102
}
330
19
100
AcDbPlotSettings
  1

  2
HP DeskJet 840C/841C/842C/843C
  4

  6

 40
0.0
 41
0.0
 42
0.0
 43
0.0
 44
0.0
 45
0.0
 46
0.0
 47
0.0
 48
0.0
 49
0.0
140
0.0
141
0.0
142
1.0
143
1.0
 70
  1712
 72
     0
 73
     0
 74
     0
  7

 75
     0
147
1.0
 76
     0
 77
     2
 78
   300
148
0.0
149
0.0
100
AcDbLayout
  1
Model
 70
     1
 71
     0
 10
0.0
 20
0.0
 11
12.0
 21
9.0
 12
0.0
 22
0.0
 32
0.0
 14
0.0
 24
0.0
 34
0.0
 15
0.0
 25
0.0
 35
0.0
146
0.0
 13
0.0
 23
0.0
 33
0.0
 16
1.0
 26
0.0
 36
0.0
 17
0.0
 27
1.0
 37
0.0
 76
     0
330
20
  0
MLINESTYLE
  5
17
102
{ACAD_REACTORS
330
16
102
}
330
16
100
AcDbMlineStyle
  2
STANDARD
 70
     0
  3

 62
   256
 51
90.0
 52
90.0
 71
     2
 49
0.5
 62
   256
  6
BYLAYER
 49
-0.5
 62
   256
  6
BYLAYER
  0
ACDBPLACEHOLDER
  5
F
102
{ACAD_REACTORS
330
E
102
}
330
E
  0
ENDSEC
  0
EOF
